<svg width="24" height="24" viewBox="0 0 24 24" fill="none" xmlns="http://www.w3.org/2000/svg">
<path fill-rule="evenodd" clip-rule="evenodd" d="M18.3996 21H5.59961C5.48915 21 5.39961 20.9105 5.39961 20.8V3.2C5.39961 3.08954 5.48916 3 5.59961 3H11.7453V6.55294C11.7453 7.60228 12.596 8.45294 13.6453 8.45294H18.4607V6.90031L18.5398 6.97811C18.5781 7.01571 18.5996 7.06709 18.5996 7.12072V20.8C18.5996 20.9104 18.5101 21 18.3996 21ZM18.2091 6.65294L14.5521 3.05738C14.5147 3.02061 14.4643 3 14.4119 3H13.5453V6.55294C13.5453 6.60817 13.5901 6.65294 13.6453 6.65294H18.2091ZM5.59961 22.8H18.3996C19.5042 22.8 20.3996 21.9046 20.3996 20.8V7.12072C20.3996 6.58441 20.1842 6.07058 19.8018 5.69457L15.814 1.77385C15.44 1.40608 14.9364 1.2 14.4119 1.2H5.59961C4.49504 1.2 3.59961 2.09543 3.59961 3.2V20.8C3.59961 21.9046 4.49504 22.8 5.59961 22.8Z" fill="#970C13"/>
</svg>
