<svg width="24" height="24" viewBox="0 0 24 24" fill="none" xmlns="http://www.w3.org/2000/svg">
<path fill-rule="evenodd" clip-rule="evenodd" d="M13.6667 3.66667C17.3486 3.66667 20.3333 6.65143 20.3333 10.3333C20.3333 14.0152 17.3486 17 13.6667 17C9.98477 17 7 14.0152 7 10.3333C7 6.65143 9.98477 3.66667 13.6667 3.66667ZM22 10.3333C22 5.73096 18.269 2 13.6667 2C9.06429 2 5.33333 5.73096 5.33333 10.3333C5.33333 14.9357 9.06429 18.6667 13.6667 18.6667C18.269 18.6667 22 14.9357 22 10.3333Z" fill="#970C13"/>
<path fill-rule="evenodd" clip-rule="evenodd" d="M8.42259 15.5774C8.09715 15.252 7.56951 15.252 7.24408 15.5774L2.24408 20.5774C1.91864 20.9028 1.91864 21.4305 2.24408 21.7559C2.56951 22.0814 3.09715 22.0814 3.42259 21.7559L8.42259 16.7559C8.74803 16.4305 8.74803 15.9028 8.42259 15.5774Z" fill="#970C13"/>
</svg>
